<svg xmlns="http://www.w3.org/2000/svg" viewBox="0 0 400 300">
  <style>.s{fill:#fff}</style>
  <path class="s" d="M200 60 c-60 0-100 40-100 90 v50 h200 v-50 c0-50-40-90-100-90z"/>
  <rect x="185" y="200" width="30" height="20" rx="2" fill="#fff"/>
  <rect x="170" y="218" width="60" height="8" rx="2" fill="#fff"/>
  <path d="M120 130 q-30-30 0-60" fill="none" stroke="#fff" stroke-width="4" stroke-linecap="round"/>
  <path d="M100 140 q-50-50 0-100" fill="none" stroke="#fff" stroke-width="3" stroke-linecap="round"/>
  <path d="M280 130 q30-30 0-60" fill="none" stroke="#fff" stroke-width="4" stroke-linecap="round"/>
  <path d="M300 140 q50-50 0-100" fill="none" stroke="#fff" stroke-width="3" stroke-linecap="round"/>
  <circle cx="200" cy="130" r="15" fill="#111"/>
  <rect x="150" y="240" width="100" height="24" rx="12" fill="#fff"/>
  <circle cx="200" cy="252" r="6" fill="#111"/>
</svg>
